<?xml version="1.0" standalone="no"?>
<!DOCTYPE svg PUBLIC "-//W3C//DTD SVG 20010904//EN"
 "http://www.w3.org/TR/2001/REC-SVG-20010904/DTD/svg10.dtd">
<svg version="1.0" xmlns="http://www.w3.org/2000/svg"
 width="1280.000000pt" height="1280.000000pt" viewBox="0 0 1280.000000 1280.000000"
 preserveAspectRatio="xMidYMid meet">

<g transform="translate(0.000000,1280.000000) scale(0.100000,-0.100000)"
fill="#000000" stroke="none">
<path d="M7993 11519 c-18 -18 -16 -54 4 -70 53 -44 77 -234 39 -309 -34 -65
-62 -86 -176 -131 -39 -16 -97 -16 -735 -9 -350 4 -413 2 -505 -13 -106 -18
-198 -40 -235 -57 -11 -5 -45 -18 -76 -28 -105 -38 -399 -180 -399 -194 0 -4
-6 -8 -12 -8 -24 0 -160 -96 -224 -158 -10 -10 -19 -10 -33 -2 -20 10 -58 4
-196 -35 -33 -10 -78 -21 -100 -27 -69 -16 -222 -65 -290 -93 -111 -45 -219
-93 -445 -197 -162 -75 -368 -181 -452 -235 -21 -12 -39 -23 -42 -23 -2 0 -52
-28 -112 -63 -60 -35 -140 -80 -178 -101 -79 -43 -280 -172 -329 -209 -17 -14
-54 -43 -82 -65 -72 -56 -138 -146 -184 -252 -6 -14 -16 -70 -22 -125 -23
-219 -27 -261 -28 -277 -1 -15 -5 -16 -28 -7 -16 6 -50 15 -78 20 -63 12 -374
12 -440 0 -27 -5 -79 -15 -115 -21 -36 -7 -69 -16 -75 -21 -5 -5 -17 -9 -27
-9 -35 0 -184 -72 -283 -136 -189 -122 -300 -293 -336 -514 -20 -123 18 -285
101 -435 18 -33 37 -61 41 -63 5 -2 9 -8 9 -13 0 -36 281 -299 320 -299 5 0
10 -3 10 -8 0 -4 17 -16 37 -27 21 -11 67 -36 103 -55 36 -20 103 -50 150 -67
141 -52 145 -54 385 -105 82 -18 440 -17 520 0 151 34 231 55 243 64 8 7 17 7
27 -2 25 -21 17 -35 -27 -54 -24 -9 -58 -24 -76 -32 -18 -8 -37 -14 -42 -14
-26 0 -839 -402 -940 -464 -69 -43 -105 -77 -149 -141 -108 -156 -157 -469
-126 -810 8 -93 20 -187 26 -209 6 -21 7 -42 2 -45 -4 -4 -39 -20 -78 -36 -38
-16 -83 -37 -99 -48 -37 -26 -37 -31 50 -312 28 -94 33 -101 59 -106 38 -8 47
-66 56 -379 8 -292 15 -362 39 -430 31 -87 140 -153 251 -153 39 0 85 7 112
18 l47 18 27 -27 c49 -49 108 -68 218 -69 106 -1 157 15 212 66 20 18 28 19
66 11 126 -29 294 95 342 254 3 12 14 22 23 22 33 0 98 42 128 83 17 23 46 85
64 137 17 52 36 103 41 112 14 28 10 175 -6 233 -9 29 -31 73 -50 97 -20 25
-35 54 -35 70 0 35 -38 215 -52 248 -30 70 -46 97 -83 136 -75 80 -217 104
-345 59 -55 -19 -70 -19 -70 2 0 9 -14 60 -31 113 -16 52 -36 113 -42 135 -12
38 -14 40 -52 40 -22 0 -50 -4 -63 -9 l-22 -7 2 158 c1 87 -4 201 -10 253
l-12 95 29 25 c29 24 65 45 206 119 97 50 155 74 265 111 52 17 104 35 115 40
71 30 243 66 356 74 l76 5 72 -80 c80 -88 265 -253 345 -308 12 -8 23 -18 26
-22 8 -11 194 -116 259 -146 72 -33 181 -42 491 -43 130 -1 241 -4 247 -8 5
-4 14 -18 18 -32 4 -14 10 -27 14 -30 3 -3 21 -34 40 -70 37 -71 149 -255 221
-365 26 -38 71 -108 101 -155 111 -173 178 -275 187 -286 5 -6 13 -20 16 -32
4 -12 12 -22 17 -22 23 0 6 -19 -23 -25 -18 -4 -69 -18 -113 -32 -44 -13 -109
-33 -145 -44 -36 -11 -74 -24 -85 -29 -38 -16 -221 -70 -237 -70 -9 0 -19 -4
-22 -9 -3 -5 -22 -12 -42 -16 -20 -3 -44 -10 -53 -15 -23 -11 -139 -52 -256
-90 -55 -17 -128 -45 -163 -61 -35 -16 -74 -29 -87 -29 -24 0 -48 -29 -58 -70
-3 -14 -13 -54 -22 -90 -9 -36 -21 -94 -26 -130 -5 -36 -14 -94 -19 -130 -6
-36 -17 -117 -26 -180 -8 -63 -22 -162 -30 -220 -51 -372 -64 -510 -64 -697 0
-120 4 -182 17 -231 29 -117 106 -231 208 -307 81 -59 238 -91 377 -75 96 11
230 27 338 39 41 5 131 14 200 20 142 13 285 37 317 53 12 6 27 24 33 41 22
65 7 417 -21 469 -5 10 -9 27 -9 37 0 21 -86 197 -107 219 -7 7 -13 17 -13 22
0 13 -84 96 -127 124 -40 27 -134 56 -180 56 -31 0 -95 -17 -142 -37 -28 -13
-35 -13 -47 -2 -23 24 -43 206 -47 439 l-5 226 102 31 c119 38 220 67 296 87
30 8 96 28 145 46 161 56 442 140 471 140 7 0 30 -30 53 -67 72 -118 350 -561
436 -693 23 -36 75 -118 116 -183 41 -64 106 -168 146 -230 102 -159 216 -339
319 -504 49 -78 103 -163 119 -189 17 -26 45 -70 62 -98 50 -78 178 -204 266
-261 27 -17 47 -20 122 -19 114 1 176 28 263 114 76 76 122 167 196 395 31 94
60 179 65 190 41 95 57 125 63 125 5 0 8 4 8 10 0 5 9 20 19 32 11 13 49 59
86 102 37 44 82 95 101 115 19 20 34 39 34 42 0 3 9 17 21 30 66 76 147 212
213 359 14 31 61 178 87 270 36 129 49 395 25 497 -20 79 -23 88 -62 168 -89
185 -292 283 -473 229 -103 -30 -240 -126 -324 -228 -71 -86 -82 -98 -93 -110
-5 -6 -41 -63 -80 -126 -71 -118 -113 -203 -159 -325 -64 -168 -95 -213 -195
-287 -71 -52 -136 -78 -199 -78 -18 0 -55 32 -96 81 -36 43 -150 183 -158 194
-43 59 -150 212 -177 255 -19 30 -38 57 -42 58 -5 2 -8 8 -8 14 0 6 -13 27
-30 48 -16 21 -30 43 -30 49 0 6 -4 11 -10 11 -5 0 -12 11 -16 25 -3 14 -9 25
-13 25 -3 0 -17 20 -31 45 -14 25 -27 45 -31 45 -7 0 -31 51 -26 56 2 2 37 15
78 29 95 33 234 103 266 135 91 89 81 263 -26 478 -100 201 -184 358 -225 422
-23 36 -49 79 -58 95 -72 141 -117 218 -154 264 -24 29 -44 57 -44 62 0 4 21
11 48 15 26 3 83 15 127 26 44 11 98 24 120 29 47 12 183 57 205 68 9 5 31 12
50 16 19 4 41 11 50 15 8 5 38 16 65 25 28 10 68 26 90 35 22 10 69 30 105 45
36 14 88 37 115 49 28 13 60 26 73 30 12 4 71 31 130 60 59 29 152 74 207 101
167 81 220 115 249 163 14 24 26 48 26 55 0 7 10 28 23 47 26 40 117 217 137
270 8 19 17 37 20 40 3 3 14 28 25 55 16 43 45 79 97 120 95 76 429 243 653
328 37 14 102 39 150 57 11 4 61 22 110 40 50 17 98 36 108 41 11 6 20 9 21 7
9 -12 26 -70 31 -106 8 -50 54 -102 90 -102 22 0 92 27 105 40 3 3 32 18 65
34 129 61 147 71 156 89 13 22 -3 75 -31 105 -11 11 -21 26 -22 32 -4 15 88
50 129 50 49 0 155 38 268 97 68 35 174 113 180 132 3 9 36 26 77 39 120 40
261 151 341 271 59 88 68 112 66 181 -2 45 3 65 25 103 60 102 72 224 31 311
-14 29 -34 61 -44 70 -25 23 -87 45 -128 46 l-33 0 20 33 c10 17 27 48 38 67
11 19 32 58 47 85 130 235 172 381 145 510 -15 75 -32 104 -77 135 -67 46
-177 22 -278 -60 -129 -105 -285 -301 -366 -460 -53 -104 -45 -115 -74 90 -9
63 -21 125 -26 138 -5 13 -9 32 -9 42 0 38 -35 128 -103 270 -46 94 -124 183
-195 219 -98 50 -209 14 -257 -84 -31 -63 -55 -159 -55 -218 0 -49 26 -193 39
-217 5 -9 12 -36 16 -60 4 -24 11 -51 15 -60 5 -8 23 -51 41 -94 18 -44 43
-94 56 -113 26 -38 24 -39 -49 -46 -49 -5 -159 -54 -200 -89 -72 -62 -110
-105 -133 -153 -46 -94 -69 -208 -62 -315 5 -84 41 -176 100 -259 31 -43 32
-48 19 -71 -8 -14 -51 -49 -96 -78 -44 -30 -99 -67 -121 -83 -22 -15 -46 -28
-53 -29 -16 0 -114 -41 -290 -121 -24 -11 -64 -27 -90 -35 -52 -18 -127 -49
-156 -65 -17 -10 -18 -8 -12 23 30 140 66 405 86 643 24 275 -7 1203 -44 1320
-9 28 -16 61 -16 76 0 14 -13 45 -28 70 -34 53 -193 203 -248 233 -21 11 -41
23 -44 26 -7 7 -106 55 -155 75 -22 9 -63 16 -92 16 l-52 0 14 37 c15 40 35
128 61 267 19 103 14 201 -15 292 -11 32 -22 72 -26 90 -3 17 -13 37 -21 44
-8 6 -14 16 -14 21 0 35 -124 141 -210 180 -80 37 -264 60 -287 37z m207 -102
c45 -14 127 -67 163 -105 15 -16 44 -69 64 -118 34 -84 37 -96 41 -228 5 -157
-6 -220 -63 -371 -35 -90 -75 -161 -131 -225 -73 -87 -193 -205 -239 -236 -72
-49 -188 -131 -202 -144 -7 -5 -15 -10 -17 -10 -3 0 -34 -17 -68 -38 -35 -20
-83 -47 -108 -59 -112 -53 -199 -91 -250 -108 -30 -10 -64 -21 -75 -26 -11 -4
-36 -12 -55 -18 -19 -5 -80 -23 -135 -40 -55 -17 -126 -33 -157 -37 -57 -6
-77 -25 -42 -38 17 -7 180 10 234 24 19 5 69 16 110 25 91 20 250 70 307 96
24 10 46 19 50 19 26 0 312 159 360 200 10 8 29 22 43 31 14 9 35 25 47 35 12
11 35 29 51 41 16 12 41 34 57 48 18 18 35 25 49 21 11 -2 39 -8 61 -11 22 -4
49 -10 60 -14 11 -5 47 -16 80 -25 64 -18 128 -46 133 -58 2 -5 9 -8 15 -8 7
0 27 -13 46 -29 41 -33 39 -41 -28 -143 -54 -81 -62 -89 -168 -160 -77 -52
-311 -168 -338 -168 -8 0 -15 -4 -15 -9 0 -5 -17 -12 -37 -16 -21 -4 -42 -10
-48 -15 -5 -4 -39 -17 -75 -29 -36 -11 -108 -34 -160 -51 -52 -17 -120 -37
-150 -45 -30 -7 -86 -22 -125 -33 -38 -11 -106 -27 -150 -37 -44 -10 -90 -21
-103 -26 -13 -5 -55 -9 -94 -9 -51 0 -79 -5 -102 -19 -17 -10 -60 -24 -96 -30
-36 -7 -83 -16 -105 -21 -22 -5 -87 -16 -145 -25 -58 -9 -145 -22 -195 -30
-49 -8 -106 -16 -125 -19 -252 -39 -721 -78 -1155 -96 -522 -22 -1140 31
-1412 121 -51 17 -54 13 88 113 42 30 86 57 98 61 11 3 21 11 21 16 0 5 7 9
15 9 8 0 15 3 15 8 0 4 9 12 20 17 11 6 69 40 129 78 60 37 114 67 120 67 5 0
11 4 13 8 4 10 190 101 298 145 102 42 238 88 380 128 233 67 298 80 286 60
-8 -13 -34 -260 -38 -360 -3 -94 9 -114 37 -61 16 31 26 76 44 195 14 91 40
192 62 244 55 125 147 303 188 366 69 105 240 273 329 323 145 81 285 151 407
202 211 88 516 130 808 110 76 -5 248 -12 381 -16 272 -8 332 0 455 59 107 52
160 115 191 229 15 57 1 203 -26 272 -8 20 -7 20 76 -7z m345 -956 c52 -20
165 -77 165 -83 0 -5 4 -8 9 -8 23 0 113 -70 191 -149 131 -133 130 -130 130
-210 0 -39 -4 -72 -9 -75 -4 -3 -11 -21 -14 -40 -6 -38 -101 -162 -164 -215
-21 -17 -45 -37 -53 -45 -8 -7 -28 -21 -45 -32 -16 -10 -32 -21 -35 -24 -32
-34 -308 -178 -470 -245 -63 -26 -128 -53 -145 -60 -68 -30 -432 -147 -460
-147 -29 -1 -230 57 -250 72 -5 4 -25 11 -42 15 -55 11 -46 21 40 43 156 39
302 80 420 116 114 36 137 44 204 72 17 8 35 14 40 14 14 0 153 59 243 103
198 98 287 165 359 272 17 25 31 50 31 56 0 5 5 9 10 9 6 0 10 7 10 15 0 9 7
29 15 46 16 30 34 146 27 167 -7 22 -32 12 -38 -15 -13 -53 -21 -54 -87 -21
-103 51 -138 63 -274 94 -46 10 -83 21 -83 24 0 3 20 28 45 55 24 28 68 87 97
132 50 76 55 81 83 76 17 -2 39 -8 50 -12z m-2995 -46 c0 -2 -23 -38 -50 -79
-42 -63 -140 -253 -140 -272 0 -6 -21 -56 -42 -101 -8 -17 -32 -27 -112 -46
-115 -29 -281 -75 -311 -87 -11 -4 -49 -17 -85 -28 -167 -52 -508 -199 -518
-224 -2 -4 -8 -8 -13 -8 -8 0 -81 -45 -302 -184 -69 -43 -151 -106 -212 -160
-52 -47 -75 -46 -118 6 -25 30 -39 39 -52 34 -19 -7 -15 -24 17 -71 41 -61
162 -125 235 -125 33 0 132 -15 258 -40 60 -12 276 -35 475 -51 140 -11 696
-7 948 7 71 4 102 3 102 -5 0 -6 -6 -11 -12 -11 -13 0 -82 -34 -303 -150
l-120 -62 -300 6 c-329 7 -439 15 -715 56 -81 12 -243 44 -300 60 -19 5 -60
16 -90 24 -84 23 -138 41 -146 49 -4 4 -14 7 -22 7 -7 0 -43 14 -79 30 -35 17
-69 30 -74 30 -5 0 -9 5 -9 10 0 6 -5 10 -11 10 -6 0 -35 14 -65 32 -49 29
-54 37 -64 82 -9 42 -8 54 10 90 27 54 153 186 179 186 5 0 11 3 13 8 5 11
113 82 125 82 6 0 13 4 15 8 4 9 111 77 188 119 30 16 71 38 90 49 19 10 37
21 40 24 3 3 21 14 40 24 19 11 55 30 80 44 25 13 70 39 100 57 161 95 358
196 565 290 33 15 83 37 110 50 127 57 151 68 199 86 28 11 60 24 71 29 11 5
56 20 100 34 44 13 123 38 175 54 92 29 130 37 130 27z m4786 -286 c60 -37
153 -194 191 -324 25 -84 76 -365 87 -472 l5 -52 -27 10 c-14 6 -31 14 -37 18
-18 14 -158 60 -202 66 -40 6 -43 9 -43 36 0 17 -6 42 -14 57 -20 39 -62 168
-76 232 -31 141 -40 199 -40 245 0 54 41 183 62 197 22 14 59 9 94 -13z m1028
-231 c23 -32 20 -139 -4 -217 -37 -118 -198 -418 -269 -503 -6 -7 -25 -29 -41
-48 -16 -19 -30 -40 -30 -46 0 -6 -12 -22 -27 -35 -16 -14 -46 -47 -68 -73
-71 -86 -69 -85 -77 -36 -9 54 -57 156 -92 195 -31 36 -31 37 -7 84 11 20 40
77 65 128 45 92 109 188 195 293 52 65 209 223 231 234 8 4 31 16 50 26 46 25
56 24 74 -2z m-2304 -219 c0 -61 -15 -95 -76 -166 -11 -11 -26 -31 -34 -43 -8
-12 -20 -28 -25 -34 -6 -6 -22 -27 -35 -46 -13 -19 -27 -37 -31 -40 -3 -3 -64
-84 -134 -180 -70 -96 -128 -176 -129 -177 -1 -1 -46 5 -101 13 -68 10 -167
14 -312 12 -156 -2 -216 1 -225 10 -7 7 -18 12 -25 12 -7 0 -31 7 -53 16 l-40
16 133 45 c72 25 136 49 142 54 5 5 15 9 23 9 8 0 29 7 48 15 19 8 49 22 68
30 19 8 37 15 41 15 16 0 299 142 359 180 35 22 68 40 74 40 6 0 12 3 14 8 2
4 26 22 53 41 92 64 201 161 235 210 23 34 30 25 30 -40z m1315 -433 c106 -23
184 -66 249 -137 32 -35 66 -80 76 -99 22 -44 40 -127 40 -186 0 -37 -4 -46
-24 -55 -29 -14 -76 -4 -76 15 0 7 -22 36 -49 64 -38 39 -61 54 -107 67 -73
22 -175 22 -233 1 -60 -22 -74 -35 -60 -52 8 -10 36 -14 91 -14 199 0 281 -73
282 -250 0 -106 -26 -175 -71 -186 -15 -3 -50 -14 -78 -23 -49 -16 -50 -18
-50 -56 0 -34 4 -41 28 -49 33 -12 147 15 187 43 43 31 76 91 95 173 17 78 18
78 32 51 8 -15 19 -30 25 -34 6 -4 -1 -23 -18 -49 -55 -84 -32 -197 53 -254
26 -18 31 -26 21 -32 -33 -22 -67 -37 -123 -56 -33 -10 -69 -24 -80 -29 -79
-35 -174 -58 -247 -59 -57 0 -58 0 -121 63 -35 34 -95 105 -134 157 -39 52
-85 108 -102 124 -17 17 -31 35 -31 42 0 6 18 28 40 48 45 41 50 66 17 93 -24
19 -43 46 -84 121 -24 42 -27 58 -27 147 -1 148 25 229 98 300 108 107 234
143 381 111z m-3445 -112 c0 -52 27 -88 90 -119 33 -16 56 -32 52 -36 -4 -4
-36 -11 -72 -17 -36 -6 -101 -18 -145 -27 -44 -8 -120 -22 -170 -30 -49 -9
-117 -20 -150 -26 -107 -18 -267 -39 -412 -54 -78 -8 -153 -17 -167 -21 -16
-4 -26 -2 -26 5 0 6 4 11 10 11 5 0 22 19 36 42 22 35 26 49 22 99 -5 69 -16
64 172 84 235 25 603 80 700 104 55 14 60 13 60 -15z m2146 -224 c-4 -160 -14
-304 -27 -398 -11 -81 -27 -192 -34 -247 -19 -133 -44 -258 -78 -385 -57 -211
-109 -378 -128 -412 -5 -10 -9 -23 -9 -29 0 -6 -7 -27 -16 -47 -8 -21 -21 -50
-28 -67 -50 -115 -97 -216 -149 -320 -33 -66 -71 -141 -84 -168 -15 -29 -38
-56 -61 -71 -68 -43 -490 -246 -597 -288 -27 -10 -69 -28 -93 -39 -74 -34
-359 -140 -444 -165 -27 -8 -72 -21 -100 -30 -66 -20 -145 -38 -273 -64 -55
-11 -122 -24 -150 -30 -27 -6 -77 -15 -110 -20 -33 -5 -98 -16 -145 -25 -284
-55 -437 -65 -1090 -68 l-545 -2 -65 39 c-36 21 -67 41 -70 45 -3 3 -27 17
-53 31 -27 14 -56 32 -65 40 -9 8 -49 40 -87 71 -39 31 -79 65 -91 75 -74 67
-97 88 -164 160 -42 43 -103 115 -136 159 -70 92 -204 289 -204 299 0 4 -11
22 -24 39 -13 18 -41 64 -61 102 -21 39 -53 99 -73 135 -74 136 -192 380 -192
397 0 3 -7 21 -16 41 -9 21 -20 46 -24 57 -15 35 -38 88 -63 145 -13 30 -34
87 -47 125 -12 39 -26 79 -31 90 -4 11 -21 67 -38 125 -17 58 -36 119 -41 136
-12 37 -13 64 -2 64 5 0 37 -11 72 -25 35 -14 70 -25 78 -25 8 0 28 -6 45 -14
36 -16 235 -83 527 -176 107 -34 204 -65 215 -70 11 -5 59 -20 107 -35 l86
-26 7 -67 c3 -37 10 -78 15 -92 5 -14 12 -45 16 -70 3 -24 10 -51 15 -60 4 -8
17 -44 29 -80 39 -118 155 -343 207 -400 13 -14 23 -28 23 -32 0 -4 24 -33 53
-63 46 -50 60 -58 127 -77 255 -70 580 -73 931 -8 138 25 333 106 350 145 5
11 27 42 48 68 36 46 141 243 141 266 0 6 7 27 16 48 33 75 36 86 73 248 34
145 41 186 41 236 0 46 2 50 22 47 17 -2 25 -14 36 -53 45 -167 115 -336 158
-386 8 -8 14 -21 14 -27 0 -7 4 -12 8 -12 4 0 15 -12 24 -27 24 -42 115 -142
172 -191 56 -47 149 -112 161 -112 7 0 15 -4 17 -10 6 -17 169 -42 238 -37
136 12 266 27 300 36 19 5 71 17 115 26 44 9 88 21 97 26 10 5 24 9 32 9 19 0
221 66 263 85 17 8 34 15 37 15 15 0 129 58 186 95 73 47 127 98 136 129 3 12
14 40 25 64 59 129 107 655 81 872 l-9 75 36 45 c44 55 58 72 107 131 22 25
54 63 71 85 84 104 149 174 162 174 2 0 1 -113 -3 -250z m2254 140 c23 -17 25
-25 24 -98 0 -57 -6 -87 -20 -113 -37 -67 -125 -135 -249 -193 -22 -10 -49
-24 -60 -29 -11 -6 -67 -13 -124 -15 l-104 -5 6 25 c17 68 46 107 165 226 158
158 173 170 230 198 57 28 99 30 132 4z m-8010 -71 c7 -7 109 -69 114 -69 3 0
33 -13 68 -29 144 -65 227 -88 553 -151 127 -24 383 -46 783 -66 72 -4 132 -8
132 -9 0 -2 -16 -19 -35 -38 -19 -19 -38 -49 -41 -65 -5 -25 -14 -32 -56 -46
-28 -9 -59 -16 -69 -16 -10 0 -20 -4 -23 -9 -3 -4 -19 -11 -34 -14 -16 -3 -54
-17 -85 -31 -31 -15 -58 -26 -62 -26 -3 0 -19 -10 -35 -22 -27 -19 -33 -20
-72 -9 -24 6 -52 16 -63 20 -11 5 -65 23 -120 41 -55 17 -109 35 -120 40 -11
5 -128 43 -260 85 -132 43 -249 81 -260 86 -11 4 -67 22 -125 39 -58 17 -114
35 -125 40 -11 5 -35 12 -53 15 -37 8 -38 11 -47 148 -5 90 -4 98 12 95 10 -2
20 -5 23 -9z m3985 -83 l30 -14 -37 -16 c-21 -9 -44 -16 -52 -16 -8 0 -17 -4
-20 -9 -3 -5 -18 -12 -33 -15 -16 -4 -91 -38 -168 -77 -168 -83 -271 -157
-346 -246 -14 -17 -36 -36 -49 -43 -29 -15 -133 -16 -138 -1 -2 6 -10 11 -18
11 -8 0 -14 4 -14 8 0 11 -154 70 -215 82 -187 39 -306 50 -524 50 -136 0
-221 4 -215 9 28 27 143 62 223 66 135 9 411 35 466 45 28 5 91 14 140 20 122
16 290 40 345 50 25 5 86 15 135 24 118 20 280 53 365 75 51 13 91 12 125 -3z
m-4114 -187 c4 -30 12 -92 18 -138 7 -46 10 -85 9 -87 -2 -2 -40 7 -83 18
-107 29 -352 31 -465 5 -207 -48 -357 -150 -423 -289 -28 -58 -30 -237 -4
-283 9 -16 17 -34 17 -38 0 -4 19 -36 41 -69 44 -65 126 -148 172 -176 15 -9
27 -20 27 -24 0 -4 7 -8 15 -8 8 0 15 -4 15 -9 0 -5 10 -13 23 -17 12 -4 38
-17 57 -29 148 -92 436 -165 650 -165 88 0 248 22 298 41 14 5 26 8 27 7 7
-10 95 -195 95 -200 0 -6 -57 -25 -170 -55 -53 -14 -109 -17 -300 -18 -269 0
-302 5 -535 81 -192 62 -398 186 -525 314 -50 51 -120 137 -120 149 0 6 -3 11
-8 11 -6 0 -40 66 -78 155 -33 78 -43 211 -23 307 14 67 67 182 105 228 108
130 262 228 442 281 37 10 83 24 102 30 90 26 231 38 420 35 l195 -3 6 -54z
m7506 -81 c-3 -8 -6 -5 -6 6 -1 11 2 17 5 13 3 -3 4 -12 1 -19z m572 -40 c-53
-101 -150 -200 -251 -256 -52 -30 -144 -55 -169 -47 -12 4 -35 20 -50 36 -23
23 -29 39 -29 72 0 23 6 53 13 67 12 24 17 25 132 31 107 6 128 10 195 40 41
18 91 43 110 55 47 31 64 31 49 2z m-8112 -194 l81 -6 7 -37 c9 -52 102 -356
124 -406 5 -11 24 -56 41 -100 18 -44 45 -107 60 -140 48 -102 62 -137 58
-139 -38 -33 -229 -50 -392 -36 -67 6 -132 15 -146 19 -14 5 -61 19 -105 31
-228 63 -438 217 -510 374 -42 90 -45 145 -13 214 44 94 161 175 298 206 36 9
83 20 105 25 39 9 230 7 392 -5z m6809 -146 c37 -57 81 -119 98 -138 58 -63
206 -281 206 -302 0 -3 -15 -11 -32 -19 -18 -7 -50 -23 -70 -35 -20 -13 -47
-26 -61 -29 -20 -6 -26 -2 -36 27 -24 65 -104 218 -125 240 -12 13 -55 68 -96
123 -40 55 -76 102 -80 105 -3 3 -14 16 -23 29 l-16 24 72 38 c40 21 78 38 85
39 7 0 42 -46 78 -102z m-2741 -50 c10 -46 22 -87 27 -92 4 -6 8 -18 8 -29 0
-25 42 -119 83 -188 13 -22 2 -49 -20 -49 -18 0 -53 32 -53 48 0 4 -6 18 -13
32 -41 78 -87 248 -87 320 0 32 4 40 18 40 15 0 22 -16 37 -82z m2493 -50 c28
-53 41 -74 69 -114 25 -36 83 -133 83 -139 0 -3 -7 -5 -15 -5 -8 0 -23 -4 -33
-9 -9 -5 -55 -23 -102 -41 -95 -36 -297 -119 -320 -131 -8 -5 -51 -26 -95 -47
-153 -74 -268 -143 -371 -221 l-41 -31 32 98 c38 113 78 243 99 322 8 30 22
81 31 113 12 43 20 57 34 57 52 0 445 134 540 184 52 27 58 25 89 -36z m-4735
-163 c36 -168 74 -292 118 -379 16 -34 27 -68 23 -78 -17 -56 -81 24 -117 147
-13 45 -22 79 -56 211 -6 23 -11 65 -11 93 0 44 3 52 17 49 11 -2 20 -18 26
-43z m-1108 -1065 c22 -39 43 -70 48 -70 4 0 7 -5 7 -11 0 -6 14 -28 30 -49
17 -21 30 -42 30 -48 0 -6 4 -12 8 -14 4 -1 18 -19 30 -39 l22 -36 -108 -18
c-89 -14 -291 -72 -367 -105 -11 -4 -54 -22 -95 -39 -194 -78 -428 -223 -558
-345 -67 -64 -110 -153 -82 -171 5 -3 44 24 86 60 43 36 81 65 87 65 6 0 7
-24 4 -62 -4 -35 -10 -149 -13 -254 l-7 -192 -51 -22 c-28 -12 -67 -28 -86
-35 -19 -7 -65 -27 -102 -44 -89 -40 -246 -101 -264 -101 -17 0 -19 115 -4
399 15 279 35 390 96 517 57 119 76 133 484 336 201 101 367 185 370 188 6 6
64 31 220 97 58 24 114 48 125 53 38 17 50 9 90 -60z m3004 -922 c13 -29 27
-55 31 -58 4 -3 34 -61 67 -130 33 -69 82 -161 110 -205 51 -83 86 -143 144
-255 18 -36 36 -67 39 -70 7 -7 74 -143 98 -200 29 -68 45 -173 32 -218 -11
-43 -44 -68 -140 -107 -36 -15 -74 -31 -85 -36 -32 -13 -145 -42 -149 -38 -12
13 -154 231 -171 262 -11 20 -23 37 -27 37 -5 0 -8 6 -8 13 0 6 20 20 45 31
100 41 110 111 37 256 -78 153 -194 368 -229 422 -12 21 -23 40 -23 43 0 3
-25 45 -55 94 -30 49 -55 92 -55 96 0 3 -7 13 -15 21 -25 25 -18 31 53 43 170
28 235 41 240 46 17 17 40 0 61 -47z m-422 -96 c85 -178 186 -382 214 -432 18
-30 44 -77 59 -105 15 -27 47 -84 69 -125 56 -100 56 -110 3 -126 -49 -15 -42
-19 -110 78 -26 36 -74 104 -107 150 -98 135 -173 263 -312 530 -8 15 -18 30
-24 33 -5 4 -9 15 -9 26 0 15 7 19 38 20 20 1 51 5 67 9 71 18 78 15 112 -58z
m-301 11 c10 -39 76 -192 130 -298 40 -78 195 -321 214 -335 13 -10 147 -196
211 -295 70 -107 168 -259 209 -324 14 -22 68 -104 121 -183 53 -79 154 -231
224 -338 71 -107 155 -230 187 -273 32 -43 58 -81 58 -85 0 -4 -31 -70 -69
-147 -85 -174 -97 -202 -106 -242 -4 -18 -10 -33 -13 -33 -6 0 -131 195 -172
268 -8 15 -17 29 -20 32 -3 3 -10 14 -17 25 -48 78 -114 182 -122 192 -6 7
-11 17 -11 23 0 5 -3 10 -8 10 -4 0 -12 9 -17 20 -20 40 -119 195 -127 198 -4
2 -8 10 -8 18 0 8 -4 14 -9 14 -5 0 -13 9 -16 20 -4 11 -31 57 -61 101 -30 44
-54 85 -54 90 0 5 -4 9 -9 9 -5 0 -14 12 -20 28 -11 28 -32 63 -42 72 -3 3
-17 24 -30 46 -34 59 -84 139 -229 369 -69 110 -192 308 -273 440 -172 280
-289 463 -341 530 -20 26 -36 52 -36 56 0 5 87 10 193 12 105 1 207 3 224 5
28 2 34 -2 39 -25z m-2976 -420 c7 -27 16 -52 20 -58 4 -5 11 -25 15 -43 5
-26 3 -38 -12 -51 -30 -28 -106 -78 -143 -94 -19 -8 -65 -29 -102 -46 -36 -17
-71 -31 -77 -31 -6 0 -19 -4 -29 -10 -23 -13 -110 -50 -116 -50 -3 0 -31 -12
-63 -26 -79 -34 -92 -40 -138 -60 -22 -9 -60 -26 -84 -37 -46 -21 -60 -15 -61
25 0 9 -4 19 -9 23 -5 3 -12 18 -16 35 -3 16 -17 51 -29 77 -46 95 -54 85 106
127 158 42 211 59 278 89 25 11 62 26 83 33 20 7 52 20 70 28 17 8 61 27 97
41 36 15 83 35 105 45 89 39 90 39 105 -17z m425 -214 c62 -29 90 -67 115
-152 12 -39 26 -86 31 -103 5 -17 9 -45 9 -62 0 -28 -3 -32 -26 -32 -39 0 -95
-36 -127 -80 -26 -37 -29 -38 -45 -22 -30 30 -59 76 -71 114 -13 40 -36 55
-58 36 -12 -9 -14 -25 -9 -67 8 -65 34 -121 82 -176 20 -22 47 -55 61 -72 29
-37 65 -43 95 -16 23 21 23 42 -2 73 -26 33 -25 42 8 71 38 34 110 34 146 0
71 -67 52 -309 -35 -435 -20 -30 -32 -36 -84 -45 -65 -12 -95 -36 -95 -78 0
-46 -50 -122 -114 -171 -33 -26 -93 -29 -122 -7 -34 26 -67 18 -109 -26 -22
-22 -52 -47 -67 -55 -36 -19 -159 -18 -205 1 -34 14 -93 69 -93 86 0 4 -11 10
-25 13 -18 5 -45 -3 -88 -24 -76 -37 -98 -37 -166 -4 -38 19 -57 36 -66 58
-18 42 -33 186 -41 381 -7 188 -32 306 -81 396 -2 4 11 9 29 13 18 3 62 17 98
30 36 13 106 39 155 57 50 18 95 36 100 40 6 4 27 10 48 14 20 4 40 11 43 16
3 5 11 9 19 9 7 0 44 14 82 31 37 17 93 42 123 55 52 24 188 110 201 127 9 12
93 24 172 26 49 1 79 -5 112 -20z m2687 -494 c6 -14 15 -25 20 -25 4 0 8 -6 8
-14 0 -8 6 -21 14 -29 8 -8 37 -49 63 -92 26 -42 56 -89 65 -104 9 -14 17 -29
17 -32 1 -9 -41 -24 -134 -49 -80 -21 -122 -34 -160 -51 -26 -11 -282 -92
-360 -114 -33 -9 -69 -20 -80 -24 -56 -22 -90 -30 -96 -23 -3 4 -16 36 -29 72
-13 36 -31 83 -40 105 -24 57 -59 148 -62 163 -2 8 19 20 57 32 205 65 354
110 364 110 6 0 19 4 29 9 9 5 44 17 77 26 33 9 92 27 130 40 92 30 103 30
117 0z m2756 -76 c114 -51 194 -183 221 -363 27 -179 -42 -532 -146 -746 -34
-70 -110 -197 -132 -220 -9 -9 -23 -26 -31 -36 -26 -34 -114 -139 -125 -149
-6 -5 -38 -44 -71 -85 -32 -41 -62 -77 -66 -80 -15 -12 -87 -169 -107 -235
-12 -38 -26 -78 -32 -87 -5 -10 -9 -25 -9 -33 0 -8 -4 -23 -10 -33 -5 -9 -19
-46 -30 -81 -44 -135 -97 -217 -185 -290 -30 -24 -87 -40 -147 -41 -53 0 -59
3 -117 52 -123 103 -135 180 -77 463 34 167 53 260 104 520 11 55 28 145 37
200 9 55 21 116 25 135 5 19 17 69 26 110 40 179 153 462 237 595 63 100 142
201 207 266 61 60 149 129 165 129 4 0 21 7 38 14 63 29 154 27 225 -5z
m-3598 -177 c0 -45 48 -243 79 -324 11 -30 15 -26 -84 -63 -84 -31 -169 -80
-173 -100 -7 -33 14 -36 84 -10 38 14 74 25 79 25 8 0 8 -26 0 -87 l-10 -88
-68 -17 c-38 -9 -71 -18 -74 -21 -15 -16 15 -27 73 -27 l65 0 -3 -52 c-3 -52
-4 -53 -38 -59 -66 -13 -95 -25 -98 -42 -4 -19 5 -21 86 -17 52 2 52 2 52 -28
0 -29 -3 -31 -54 -42 -112 -23 -112 -64 0 -53 l61 6 5 -32 c4 -29 1 -33 -31
-47 -88 -37 -126 -60 -129 -78 -3 -15 0 -18 20 -13 34 8 121 34 140 42 13 5
22 -3 37 -33 18 -35 18 -42 6 -52 -28 -23 -107 -153 -151 -247 -24 -51 -44
-96 -44 -99 0 -3 -11 -29 -23 -57 -13 -29 -32 -75 -42 -104 -16 -43 -21 -50
-36 -43 -49 27 -89 149 -99 310 -9 138 3 629 19 755 21 160 32 447 22 520 -17
116 -19 112 47 125 31 7 68 16 82 20 14 4 54 16 90 26 36 9 69 21 75 26 19 16
35 8 35 -20z m-410 -119 c0 -21 -5 -100 -10 -175 -22 -302 -42 -674 -47 -878
-11 -435 51 -644 208 -704 24 -9 80 -20 124 -24 92 -8 442 11 500 27 22 6 55
11 72 11 37 0 102 14 186 40 l57 18 0 -73 0 -73 -77 -11 c-43 -6 -125 -16
-183 -21 -118 -12 -121 -12 -550 -70 -141 -19 -258 3 -329 61 -45 37 -131 147
-131 168 0 9 -4 21 -9 27 -17 19 -31 131 -31 252 0 119 9 225 30 372 5 36 14
99 20 140 11 75 33 205 51 290 5 25 16 91 24 147 8 56 17 112 20 125 2 13 9
66 15 118 14 136 30 252 36 262 12 19 24 5 24 -29z m2616 -795 c42 -44 78 -53
174 -44 75 7 129 26 178 63 18 14 36 23 39 20 3 -4 -6 -66 -20 -139 -46 -233
-69 -351 -84 -418 -8 -36 -21 -108 -29 -160 -7 -52 -16 -106 -19 -120 -2 -14
-14 -83 -26 -155 -11 -71 -22 -131 -24 -133 -2 -2 -26 34 -54 80 -29 46 -92
146 -142 223 -244 383 -232 361 -226 424 5 60 46 184 96 293 17 37 36 88 42
114 l12 46 24 -29 c13 -15 40 -45 59 -65z m-1815 -288 c79 -22 197 -174 244
-314 23 -71 36 -156 25 -176 -12 -22 -93 -47 -215 -66 -49 -8 -119 -19 -155
-24 -96 -16 -254 -29 -347 -30 -63 0 -83 3 -83 14 0 16 102 262 137 331 39 76
102 167 137 198 74 67 168 91 257 67z"/>
<path d="M8084 10823 c-44 -133 -112 -204 -264 -275 -221 -104 -383 -144 -640
-159 -242 -14 -365 -35 -496 -84 -249 -94 -444 -431 -418 -722 5 -63 9 -73 25
-73 16 0 19 8 19 58 0 216 117 444 302 587 75 59 276 112 513 135 244 23 372
50 480 99 22 10 51 22 64 26 32 10 214 104 270 139 91 58 168 162 186 254 6
28 4 32 -15 32 -11 0 -23 -8 -26 -17z"/>
<path d="M6632 7655 c-41 -18 -62 -38 -62 -60 0 -14 6 -16 28 -11 118 29 170
16 213 -53 46 -71 35 -178 -24 -251 -13 -17 -81 -50 -101 -50 -24 0 -44 -33
-35 -57 25 -67 180 18 232 127 30 62 31 189 2 245 -52 102 -162 150 -253 110z"/>
<path d="M5642 6938 c-23 -23 -13 -56 29 -95 22 -21 48 -42 57 -47 10 -5 19
-12 22 -16 5 -8 109 -50 180 -74 82 -27 271 -57 441 -71 99 -8 143 6 151 48 5
27 -8 68 -25 79 -7 4 -48 8 -92 8 -78 0 -329 31 -410 49 -22 6 -61 15 -87 21
-27 6 -91 34 -145 61 -107 55 -104 54 -121 37z"/>
<path d="M3219 4433 c-21 -24 -18 -120 5 -166 25 -51 89 -88 155 -89 56 -2 80
16 81 60 0 33 -24 53 -71 59 -46 7 -89 52 -89 96 0 49 -53 75 -81 40z"/>
<path d="M2876 4331 c-25 -28 -32 -98 -13 -143 19 -44 89 -98 128 -98 32 0 65
39 55 65 -3 9 -26 28 -50 43 -48 29 -69 68 -64 119 2 22 -1 29 -18 31 -11 2
-28 -6 -38 -17z"/>
<path d="M8612 4323 c4 -20 39 -30 116 -32 29 0 128 -10 219 -22 150 -18 168
-19 182 -5 14 14 14 18 0 31 -16 17 -299 45 -447 45 -64 0 -73 -2 -70 -17z"/>
<path d="M8435 3984 c-45 -12 -48 -14 -36 -28 8 -9 64 -14 219 -19 115 -4 240
-11 278 -16 243 -34 254 -35 254 -1 0 30 -21 37 -135 49 -119 12 -547 24 -580
15z"/>
<path d="M8323 3640 c-13 -5 -23 -14 -23 -19 0 -14 27 -19 150 -26 124 -6 374
-30 479 -44 40 -6 77 -8 82 -5 13 8 11 40 -3 52 -30 23 -641 62 -685 42z"/>
<path d="M8220 3285 c0 -19 12 -21 225 -41 99 -9 199 -18 222 -21 34 -4 44 -1
49 12 4 9 1 22 -7 29 -21 20 -179 36 -343 36 -122 0 -146 -2 -146 -15z"/>
<path d="M8114 3009 c-3 -6 -2 -14 2 -19 5 -4 95 -13 199 -20 281 -18 260 -19
260 10 0 17 -7 26 -25 31 -43 12 -428 10 -436 -2z"/>
<path d="M8093 2759 c-32 -33 -4 -43 151 -59 101 -11 120 -10 132 2 16 16 10
44 -11 52 -8 3 -69 8 -137 12 -95 5 -126 3 -135 -7z"/>
<path d="M5265 4435 c-68 -32 -95 -75 -95 -154 0 -54 3 -63 35 -97 33 -35 37
-36 90 -32 44 4 60 10 81 33 32 35 44 66 44 117 0 100 -79 168 -155 133z m77
-72 c44 -40 8 -153 -49 -153 -42 0 -63 27 -63 80 0 76 63 118 112 73z"/>
<path d="M7586 3427 c-51 -52 -69 -101 -68 -188 0 -110 58 -179 150 -179 29 0
52 5 52 10 0 6 5 10 10 10 29 0 95 97 105 154 4 20 4 61 0 91 -5 43 -14 62
-44 96 -35 40 -41 43 -99 47 l-61 4 -45 -45z m145 -40 c36 -24 46 -49 48 -117
1 -47 -11 -72 -57 -122 -49 -53 -121 -30 -141 45 -11 42 1 145 21 177 27 43
80 50 129 17z"/>
</g>
</svg>
